<?xml version="1.0" encoding="UTF-8"?>
<!DOCTYPE svg PUBLIC "-//W3C//DTD SVG 1.1//EN" "http://www.w3.org/Graphics/SVG/1.1/DTD/svg11.dtd">
<svg xmlns="http://www.w3.org/2000/svg" version="1.1" width="432px" height="484px" style="shape-rendering:geometricPrecision; text-rendering:geometricPrecision; image-rendering:optimizeQuality; fill-rule:evenodd; clip-rule:evenodd" xmlns:xlink="http://www.w3.org/1999/xlink">
<g><path style="opacity:0.969" fill="#3c78bc" d="M 252.5,12.5 C 266.333,20.5823 280,28.9156 293.5,37.5C 276.741,33.4895 259.741,31.1562 242.5,30.5C 239.023,29.6773 235.356,29.1773 231.5,29C 223.329,24.3034 215.329,19.4701 207.5,14.5C 222.422,11.6977 237.422,11.0311 252.5,12.5 Z"/></g>
<g><path style="opacity:0.97" fill="#367abe" d="M 252.5,12.5 C 316.908,16.9562 370.741,42.9562 414,90.5C 419.391,100.775 417.558,109.608 408.5,117C 405.688,118.549 402.688,119.382 399.5,119.5C 401.193,113.621 400.693,107.954 398,102.5C 369.538,70.8393 334.705,49.1727 293.5,37.5C 280,28.9156 266.333,20.5823 252.5,12.5 Z"/></g>
<g><path style="opacity:0.973" fill="#4175ba" d="M 207.5,14.5 C 215.329,19.4701 223.329,24.3034 231.5,29C 235.356,29.1773 239.023,29.6773 242.5,30.5C 240.5,30.5 238.5,30.5 236.5,30.5C 221.983,29.9553 207.649,31.2886 193.5,34.5C 186.668,29.9161 179.668,25.5827 172.5,21.5C 183.935,18.0583 195.602,15.7249 207.5,14.5 Z"/></g>
<g><path style="opacity:0.973" fill="#4773b9" d="M 172.5,21.5 C 179.668,25.5827 186.668,29.9161 193.5,34.5C 183.143,37.0103 172.81,40.0103 162.5,43.5C 155.903,40.2247 149.57,36.558 143.5,32.5C 152.933,28.2442 162.6,24.5775 172.5,21.5 Z"/></g>
<g><path style="opacity:0.999" fill="#6c66ae" d="M 236.5,30.5 C 248.204,38.0183 260.204,45.0183 272.5,51.5C 238.403,46.4168 205.07,49.4168 172.5,60.5C 164.721,57.7798 157.721,53.7798 151.5,48.5C 155.323,47.011 158.99,45.3443 162.5,43.5C 172.81,40.0103 183.143,37.0103 193.5,34.5C 207.649,31.2886 221.983,29.9553 236.5,30.5 Z"/></g>
<g><path style="opacity:1" fill="#7165ac" d="M 236.5,30.5 C 238.5,30.5 240.5,30.5 242.5,30.5C 259.741,31.1562 276.741,33.4895 293.5,37.5C 334.705,49.1727 369.538,70.8393 398,102.5C 400.693,107.954 401.193,113.621 399.5,119.5C 395.59,119.737 391.923,118.904 388.5,117C 357.1,82.4624 318.434,60.6291 272.5,51.5C 260.204,45.0183 248.204,38.0183 236.5,30.5 Z"/></g>
<g><path style="opacity:0.971" fill="#4e71b7" d="M 143.5,32.5 C 149.57,36.558 155.903,40.2247 162.5,43.5C 158.99,45.3443 155.323,47.011 151.5,48.5C 145.292,51.7706 138.959,54.7706 132.5,57.5C 126.794,54.6532 121.461,51.3198 116.5,47.5C 124.981,41.7549 133.981,36.7549 143.5,32.5 Z"/></g>
<g><path style="opacity:0.999" fill="#6668af" d="M 151.5,48.5 C 157.721,53.7798 164.721,57.7798 172.5,60.5C 149.981,69.7581 129.315,82.0915 110.5,97.5C 108.264,98.3891 106.264,99.7224 104.5,101.5C 99.1394,98.488 93.8061,95.488 88.5,92.5C 89.5,91.1667 90.5,89.8333 91.5,88.5C 103.95,76.4544 117.616,66.121 132.5,57.5C 138.959,54.7706 145.292,51.7706 151.5,48.5 Z"/></g>
<g><path style="opacity:0.972" fill="#556fb5" d="M 116.5,47.5 C 121.461,51.3198 126.794,54.6532 132.5,57.5C 117.616,66.121 103.95,76.4544 91.5,88.5C 86.7844,85.1373 81.7844,82.1373 76.5,79.5C 88.366,66.9639 101.699,56.2973 116.5,47.5 Z"/></g>
<g><path style="opacity:0.971" fill="#5b6db4" d="M 76.5,79.5 C 81.7844,82.1373 86.7844,85.1373 91.5,88.5C 90.5,89.8333 89.5,91.1667 88.5,92.5C 74.9654,105.201 63.4654,119.535 54,135.5C 53.6258,134.584 53.1258,133.75 52.5,133C 48.2676,130.725 44.2676,128.225 40.5,125.5C 49.8353,108.155 61.8353,92.8215 76.5,79.5 Z"/></g>
<g><path style="opacity:0.974" fill="#5b6db4" d="M 246.5,107.5 C 256.801,114.322 267.467,120.656 278.5,126.5C 278.5,127.833 278.5,129.167 278.5,130.5C 272.415,128.814 266.415,127.148 260.5,125.5C 260.158,124.662 259.492,124.328 258.5,124.5C 249.833,119.167 241.167,113.833 232.5,108.5C 237.181,108.331 241.848,107.998 246.5,107.5 Z"/></g>
<g><path style="opacity:0.945" fill="#616ab1" d="M 246.5,107.5 C 257.179,107.516 267.846,107.85 278.5,108.5C 278.5,114.5 278.5,120.5 278.5,126.5C 267.467,120.656 256.801,114.322 246.5,107.5 Z"/></g>
<g><path style="opacity:0.875" fill="#4375ba" d="M 294.5,108.5 C 294.5,111.167 294.5,113.833 294.5,116.5C 290.5,116.5 286.5,116.5 282.5,116.5C 282.5,113.833 282.5,111.167 282.5,108.5C 286.5,108.5 290.5,108.5 294.5,108.5 Z"/></g>
<g><path style="opacity:0.875" fill="#5b6cb3" d="M 294.5,108.5 C 295.833,108.5 297.167,108.5 298.5,108.5C 298.5,111.167 298.5,113.833 298.5,116.5C 297.167,116.5 295.833,116.5 294.5,116.5C 294.5,113.833 294.5,111.167 294.5,108.5 Z"/></g>
<g><path style="opacity:0.909" fill="#6a67ae" d="M 298.5,108.5 C 302.095,109.85 303.428,112.517 302.5,116.5C 301.167,116.5 299.833,116.5 298.5,116.5C 298.5,113.833 298.5,111.167 298.5,108.5 Z"/></g>
<g><path style="opacity:0.975" fill="#536fb5" d="M 232.5,108.5 C 241.167,113.833 249.833,119.167 258.5,124.5C 251.492,124.666 244.492,124.5 237.5,124C 229.664,119.637 221.997,115.137 214.5,110.5C 220.5,109.833 226.5,109.167 232.5,108.5 Z"/></g>
<g><path style="opacity:0.977" fill="#5073b8" d="M 214.5,110.5 C 221.997,115.137 229.664,119.637 237.5,124C 244.492,124.5 251.492,124.666 258.5,124.5C 259.492,124.328 260.158,124.662 260.5,125.5C 255.167,125.5 249.833,125.5 244.5,125.5C 240.09,126.179 235.757,127.179 231.5,128.5C 229.287,129.773 226.954,130.773 224.5,131.5C 214.386,126.944 204.72,121.611 195.5,115.5C 201.63,113.468 207.963,111.801 214.5,110.5 Z"/></g>
<g><path style="opacity:0.98" fill="#4674ba" d="M 195.5,115.5 C 204.72,121.611 214.386,126.944 224.5,131.5C 224.5,132.167 224.167,132.5 223.5,132.5C 221.463,133.846 219.463,135.18 217.5,136.5C 213.209,139.123 209.543,142.456 206.5,146.5C 206.167,146.5 205.833,146.5 205.5,146.5C 194.833,139.833 184.167,133.167 173.5,126.5C 179.784,120.947 187.117,117.28 195.5,115.5 Z"/></g>
<g><path style="opacity:0.768" fill="#3e77bc" d="M 291.5,117.5 C 291.5,119.5 291.5,121.5 291.5,123.5C 288.5,123.5 285.5,123.5 282.5,123.5C 282.5,121.5 282.5,119.5 282.5,117.5C 285.5,117.5 288.5,117.5 291.5,117.5 Z"/></g>
<g><path style="opacity:0.768" fill="#5071b6" d="M 291.5,117.5 C 293.167,117.5 294.833,117.5 296.5,117.5C 296.5,119.5 296.5,121.5 296.5,123.5C 294.833,123.5 293.167,123.5 291.5,123.5C 291.5,121.5 291.5,119.5 291.5,117.5 Z"/></g>
<g><path style="opacity:0.768" fill="#6768af" d="M 296.5,117.5 C 298.5,117.5 300.5,117.5 302.5,117.5C 302.5,119.5 302.5,121.5 302.5,123.5C 300.5,123.5 298.5,123.5 296.5,123.5C 296.5,121.5 296.5,119.5 296.5,117.5 Z"/></g>
<g><path style="opacity:0.812" fill="#4375ba" d="M 294.5,124.5 C 294.5,127.167 294.5,129.833 294.5,132.5C 290.5,132.5 286.5,132.5 282.5,132.5C 282.5,129.833 282.5,127.167 282.5,124.5C 286.5,124.5 290.5,124.5 294.5,124.5 Z"/></g>
<g><path style="opacity:0.812" fill="#5b6cb3" d="M 294.5,124.5 C 295.833,124.5 297.167,124.5 298.5,124.5C 298.5,126.833 298.5,129.167 298.5,131.5C 297.432,132.434 296.099,132.768 294.5,132.5C 294.5,129.833 294.5,127.167 294.5,124.5 Z"/></g>
<g><path style="opacity:0.875" fill="#6a67ae" d="M 298.5,124.5 C 299.833,124.5 301.167,124.5 302.5,124.5C 302.662,126.527 302.495,128.527 302,130.5C 300.989,131.337 299.822,131.67 298.5,131.5C 298.5,129.167 298.5,126.833 298.5,124.5 Z"/></g>
<g><path style="opacity:0.965" fill="#606bb1" d="M 88.5,92.5 C 93.8061,95.488 99.1394,98.488 104.5,101.5C 106.264,99.7224 108.264,98.3891 110.5,97.5C 93.8756,112.783 79.8756,130.116 68.5,149.5C 64.0635,146.441 59.3968,143.608 54.5,141C 53.2986,140.097 52.4652,138.931 52,137.5C 44.8518,149.127 39.3518,161.46 35.5,174.5C 33.387,178.581 31.7203,182.914 30.5,187.5C 25.8501,185.196 21.1835,182.863 16.5,180.5C 21.4162,160.727 29.4162,142.394 40.5,125.5C 44.2676,128.225 48.2676,130.725 52.5,133C 53.1258,133.75 53.6258,134.584 54,135.5C 63.4654,119.535 74.9654,105.201 88.5,92.5 Z"/></g>
<g><path style="opacity:1" fill="#6e66ad" d="M 244.5,125.5 C 249.833,125.5 255.167,125.5 260.5,125.5C 266.415,127.148 272.415,128.814 278.5,130.5C 277.306,134.363 274.973,137.363 271.5,139.5C 270.542,139.953 269.708,140.619 269,141.5C 262.079,136.955 254.912,132.788 247.5,129C 245.937,128.241 244.937,127.074 244.5,125.5 Z"/></g>
<g><path style="opacity:1" fill="#6668af" d="M 244.5,125.5 C 244.937,127.074 245.937,128.241 247.5,129C 254.912,132.788 262.079,136.955 269,141.5C 269.708,140.619 270.542,139.953 271.5,139.5C 270.581,142.089 268.914,144.089 266.5,145.5C 265.518,146.141 264.518,146.807 263.5,147.5C 252.44,141.644 241.773,135.311 231.5,128.5C 235.757,127.179 240.09,126.179 244.5,125.5 Z"/></g>
<g><path style="opacity:0.899" fill="#3c77bc" d="M 173.5,126.5 C 184.167,133.167 194.833,139.833 205.5,146.5C 192.833,146.5 180.167,146.5 167.5,146.5C 167.334,141.489 167.501,136.489 168,131.5C 169.704,129.627 171.537,127.96 173.5,126.5 Z"/></g>
<g><path style="opacity:1" fill="#606bb1" d="M 231.5,128.5 C 241.773,135.311 252.44,141.644 263.5,147.5C 264.518,146.807 265.518,146.141 266.5,145.5C 264.906,148.764 262.573,151.431 259.5,153.5C 247.465,146.485 235.465,139.485 223.5,132.5C 224.167,132.5 224.5,132.167 224.5,131.5C 226.954,130.773 229.287,129.773 231.5,128.5 Z"/></g>
<g><path style="opacity:1" fill="#5a6db3" d="M 223.5,132.5 C 235.465,139.485 247.465,146.485 259.5,153.5C 258.833,156.167 257.167,157.833 254.5,158.5C 241.704,151.936 229.37,144.602 217.5,136.5C 219.463,135.18 221.463,133.846 223.5,132.5 Z"/></g>
<g><path style="opacity:0.862" fill="#4674b9" d="M 337.5,129.5 C 340.324,132.465 343.657,134.965 347.5,137C 343.994,139.34 340.994,142.174 338.5,145.5C 336.5,142.167 333.833,139.5 330.5,137.5C 333.595,135.411 335.929,132.744 337.5,129.5 Z"/></g>
<g><path style="opacity:0.999" fill="#5b6db3" d="M 68.5,149.5 C 50.5789,182.859 42.5789,218.525 44.5,256.5C 43.8333,256.5 43.5,256.167 43.5,255.5C 42.6663,238.438 43.9996,221.604 47.5,205C 42,201.5 36.5,198 31,194.5C 32.1675,187.824 33.6675,181.157 35.5,174.5C 39.3518,161.46 44.8518,149.127 52,137.5C 52.4652,138.931 53.2986,140.097 54.5,141C 59.3968,143.608 64.0635,146.441 68.5,149.5 Z"/></g>
<g><path style="opacity:1" fill="#5270b6" d="M 217.5,136.5 C 229.37,144.602 241.704,151.936 254.5,158.5C 238.465,156.383 222.465,154.05 206.5,151.5C 206.5,149.833 206.5,148.167 206.5,146.5C 209.543,142.456 213.209,139.123 217.5,136.5 Z"/></g>
<g><path style="opacity:0.899" fill="#4773b9" d="M 275.5,178.5 C 275.5,183.167 275.5,187.833 275.5,192.5C 271.844,189.197 269.178,185.197 267.5,180.5C 267.5,170.833 267.5,161.167 267.5,151.5C 268.36,149.03 269.694,148.863 271.5,151C 270.574,160.412 271.907,169.579 275.5,178.5 Z"/></g>
<g><path style="opacity:0.915" fill="#3b78bc" d="M 267.5,151.5 C 267.5,161.167 267.5,170.833 267.5,180.5C 264.177,174.723 261.51,168.556 259.5,162C 261.633,158.042 264.299,154.542 267.5,151.5 Z"/></g>
<g><path style="opacity:0.874" fill="#3c77bc" d="M 131.5,148.5 C 132.324,152.312 132.824,156.312 133,160.5C 135.582,165.287 139.416,166.954 144.5,165.5C 151.167,166.5 151.167,167.5 144.5,168.5C 139.416,167.046 135.582,168.713 133,173.5C 132.667,177.5 132.333,181.5 132,185.5C 130.939,180.902 129.939,176.235 129,171.5C 126.251,167.749 122.751,166.749 118.5,168.5C 111.833,167.5 111.833,166.5 118.5,165.5C 122.751,167.251 126.251,166.251 129,162.5C 130.102,157.865 130.935,153.199 131.5,148.5 Z"/></g>
<g><path style="opacity:0.953" fill="#7264ac" d="M 249.5,167.5 C 245.167,173.5 240.833,179.5 236.5,185.5C 226.033,180.1 215.7,174.433 205.5,168.5C 205.575,165.794 205.908,163.127 206.5,160.5C 221.005,162.57 235.338,164.903 249.5,167.5 Z"/></g>
<g><path style="opacity:0.981" fill="#6d66ad" d="M 205.5,168.5 C 215.7,174.433 226.033,180.1 236.5,185.5C 232.975,191.217 229.975,197.217 227.5,203.5C 225.321,207.203 223.655,211.203 222.5,215.5C 214.909,210.027 206.909,205.027 198.5,200.5C 202.617,190.248 204.951,179.582 205.5,168.5 Z"/></g>
<g><path style="opacity:0.999" fill="#3d78bc" d="M 249.5,167.5 C 251.5,167.5 253.5,167.5 255.5,167.5C 251.58,188.85 257.08,207.183 272,222.5C 273.094,224.078 273.928,225.745 274.5,227.5C 273.279,228.465 271.946,228.298 270.5,227C 256.42,219.211 242.586,211.045 229,202.5C 228.617,203.056 228.117,203.389 227.5,203.5C 229.975,197.217 232.975,191.217 236.5,185.5C 240.833,179.5 245.167,173.5 249.5,167.5 Z"/></g>
<g><path style="opacity:0.974" fill="#6768af" d="M 16.5,180.5 C 21.1835,182.863 25.8501,185.196 30.5,187.5C 26.7794,201.595 24.446,215.928 23.5,230.5C 23.2751,242.526 23.6084,254.526 24.5,266.5C 23.7811,264.909 22.7811,263.409 21.5,262C 16.9251,259.242 12.2585,256.742 7.5,254.5C 6.12923,229.157 9.12923,204.49 16.5,180.5 Z"/></g>
<g><path style="opacity:0.848" fill="#566eb4" d="M 275.5,178.5 C 277.341,180.849 278.674,183.515 279.5,186.5C 279.5,189.833 279.5,193.167 279.5,196.5C 277.833,195.5 276.5,194.167 275.5,192.5C 275.5,187.833 275.5,183.167 275.5,178.5 Z"/></g>
<g><path style="opacity:0.809" fill="#6868af" d="M 279.5,186.5 C 281.803,188.978 283.969,191.645 286,194.5C 287.009,196.025 287.509,197.692 287.5,199.5C 284.351,199.585 281.684,198.585 279.5,196.5C 279.5,193.167 279.5,189.833 279.5,186.5 Z"/></g>
<g><path style="opacity:1" fill="#5570b5" d="M 35.5,174.5 C 33.6675,181.157 32.1675,187.824 31,194.5C 36.5,198 42,201.5 47.5,205C 43.9996,221.604 42.6663,238.438 43.5,255.5C 37.1667,252.167 30.8333,248.833 24.5,245.5C 24.8205,240.305 24.4872,235.305 23.5,230.5C 24.446,215.928 26.7794,201.595 30.5,187.5C 31.7203,182.914 33.387,178.581 35.5,174.5 Z"/></g>
<g><path style="opacity:0.987" fill="#6668af" d="M 198.5,200.5 C 206.909,205.027 214.909,210.027 222.5,215.5C 222.5,215.833 222.5,216.167 222.5,216.5C 219.276,223.387 217.276,230.721 216.5,238.5C 215.105,242.591 214.438,246.924 214.5,251.5C 201.539,245.02 188.872,238.02 176.5,230.5C 179.215,223.269 183.715,217.269 190,212.5C 193.101,208.609 195.934,204.609 198.5,200.5 Z"/></g>
<g><path style="opacity:1" fill="#4077bb" d="M 274.5,227.5 C 277.758,233.997 279.424,240.997 279.5,248.5C 260.365,238.099 241.365,227.432 222.5,216.5C 222.5,216.167 222.5,215.833 222.5,215.5C 223.655,211.203 225.321,207.203 227.5,203.5C 228.117,203.389 228.617,203.056 229,202.5C 242.586,211.045 256.42,219.211 270.5,227C 271.946,228.298 273.279,228.465 274.5,227.5 Z"/></g>
<g><path style="opacity:1" fill="#4375ba" d="M 222.5,216.5 C 241.365,227.432 260.365,238.099 279.5,248.5C 281.128,254.268 282.128,260.268 282.5,266.5C 282.483,268.028 281.816,268.528 280.5,268C 260.167,256.167 239.833,244.333 219.5,232.5C 218.199,234.444 217.199,236.444 216.5,238.5C 217.276,230.721 219.276,223.387 222.5,216.5 Z"/></g>
<g><path style="opacity:0.987" fill="#626ab1" d="M 176.5,230.5 C 188.872,238.02 201.539,245.02 214.5,251.5C 214.5,252.5 214.5,253.5 214.5,254.5C 213.532,256.607 213.198,258.941 213.5,261.5C 200.635,253.901 187.635,246.568 174.5,239.5C 175.062,236.454 175.729,233.454 176.5,230.5 Z"/></g>
<g><path style="opacity:0.999" fill="#4773b8" d="M 282.5,266.5 C 285.57,279.914 287.903,293.581 289.5,307.5C 289.435,310.998 288.101,311.498 285.5,309C 265.997,297.414 246.33,286.081 226.5,275C 222.22,272.378 218.22,269.545 214.5,266.5C 214.5,262.5 214.5,258.5 214.5,254.5C 214.5,253.5 214.5,252.5 214.5,251.5C 214.438,246.924 215.105,242.591 216.5,238.5C 217.199,236.444 218.199,234.444 219.5,232.5C 239.833,244.333 260.167,256.167 280.5,268C 281.816,268.528 282.483,268.028 282.5,266.5 Z"/></g>
<g><path style="opacity:1" fill="#5d85c5" d="M 23.5,230.5 C 24.4872,235.305 24.8205,240.305 24.5,245.5C 24.6436,253.51 24.9769,261.51 25.5,269.5C 24.596,268.791 24.2627,267.791 24.5,266.5C 23.6084,254.526 23.2751,242.526 23.5,230.5 Z"/></g>
<g><path style="opacity:0.989" fill="#5f6bb1" d="M 174.5,239.5 C 187.635,246.568 200.635,253.901 213.5,261.5C 213.644,269.51 213.977,277.51 214.5,285.5C 214.649,286.552 214.483,287.552 214,288.5C 200.022,280.096 185.855,272.096 171.5,264.5C 172.744,256.212 173.744,247.879 174.5,239.5 Z"/></g>
<g><path style="opacity:1" fill="#4e71b7" d="M 24.5,245.5 C 30.8333,248.833 37.1667,252.167 43.5,255.5C 43.5,256.167 43.8333,256.5 44.5,256.5C 45.517,267.935 47.1837,279.268 49.5,290.5C 41.9955,285.913 34.3288,281.58 26.5,277.5C 25.5269,275.052 25.1936,272.385 25.5,269.5C 24.9769,261.51 24.6436,253.51 24.5,245.5 Z"/></g>
<g><path style="opacity:0.966" fill="#6d66ad" d="M 7.5,254.5 C 12.2585,256.742 16.9251,259.242 21.5,262C 22.7811,263.409 23.7811,264.909 24.5,266.5C 24.2627,267.791 24.596,268.791 25.5,269.5C 25.1936,272.385 25.5269,275.052 26.5,277.5C 27.1547,289.102 29.8214,300.102 34.5,310.5C 37.7065,322.249 42.0398,333.583 47.5,344.5C 39.6712,340.42 32.0045,336.087 24.5,331.5C 13.9716,307.039 8.30488,281.372 7.5,254.5 Z"/></g>
<g><path style="opacity:0.991" fill="#5a6db3" d="M 171.5,264.5 C 185.855,272.096 200.022,280.096 214,288.5C 214.483,287.552 214.649,286.552 214.5,285.5C 215.658,292.286 217.324,298.952 219.5,305.5C 221.136,314.413 224.136,322.746 228.5,330.5C 228.5,331.167 228.5,331.833 228.5,332.5C 208.005,321.42 187.672,310.087 167.5,298.5C 169.197,287.226 170.531,275.893 171.5,264.5 Z"/></g>
<g><path style="opacity:0.999" fill="#4e71b6" d="M 214.5,266.5 C 218.22,269.545 222.22,272.378 226.5,275C 246.33,286.081 265.997,297.414 285.5,309C 288.101,311.498 289.435,310.998 289.5,307.5C 293.354,326.953 296.687,346.619 299.5,366.5C 275.662,351.587 251.329,337.754 226.5,325C 227.861,326.584 228.528,328.418 228.5,330.5C 224.136,322.746 221.136,314.413 219.5,305.5C 216.805,292.633 215.138,279.633 214.5,266.5 Z"/></g>
<g><path style="opacity:0.92" fill="#3c77bc" d="M 347.5,244.5 C 348.117,244.611 348.617,244.944 349,245.5C 351.056,252.088 350.889,258.588 348.5,265C 351.654,273.487 357.487,279.32 366,282.5C 373.23,279.732 380.397,279.899 387.5,283C 380.572,286.093 373.572,286.259 366.5,283.5C 358.167,287.167 352.167,293.167 348.5,301.5C 351.259,308.572 351.093,315.572 348,322.5C 344.899,315.397 344.732,308.23 347.5,301C 344.378,292.711 338.711,286.878 330.5,283.5C 323.364,286.313 316.364,286.146 309.5,283C 316.247,279.895 323.081,279.728 330,282.5C 343.37,277.411 348.537,268.077 345.5,254.5C 346.042,251.122 346.709,247.789 347.5,244.5 Z"/></g>
<g><path style="opacity:1" fill="#4974b9" d="M 26.5,277.5 C 34.3288,281.58 41.9955,285.913 49.5,290.5C 53.0965,302.289 57.0965,313.956 61.5,325.5C 52.9131,319.708 43.9131,314.708 34.5,310.5C 29.8214,300.102 27.1547,289.102 26.5,277.5 Z"/></g>
<g><path style="opacity:1" fill="#547dc1" d="M 214.5,254.5 C 214.5,258.5 214.5,262.5 214.5,266.5C 215.138,279.633 216.805,292.633 219.5,305.5C 217.324,298.952 215.658,292.286 214.5,285.5C 213.977,277.51 213.644,269.51 213.5,261.5C 213.198,258.941 213.532,256.607 214.5,254.5 Z"/></g>
<g><path style="opacity:0.994" fill="#556eb4" d="M 167.5,298.5 C 187.672,310.087 208.005,321.42 228.5,332.5C 235.723,347.093 245.056,360.259 256.5,372C 225.996,355.407 195.663,338.241 165.5,320.5C 166.24,313.174 166.907,305.841 167.5,298.5 Z"/></g>
<g><path style="opacity:0.873" fill="#4674b9" d="M 125.5,294.5 C 128.146,297.812 131.146,300.812 134.5,303.5C 130.833,305.167 128.167,307.833 126.5,311.5C 124.006,308.174 121.006,305.34 117.5,303C 121.748,301.587 124.415,298.754 125.5,294.5 Z"/></g>
<g><path style="opacity:1" fill="#4476ba" d="M 34.5,310.5 C 43.9131,314.708 52.9131,319.708 61.5,325.5C 69.0769,339.659 77.4102,353.325 86.5,366.5C 74.288,359.561 61.9547,352.895 49.5,346.5C 48.8333,345.833 48.1667,345.167 47.5,344.5C 42.0398,333.583 37.7065,322.249 34.5,310.5 Z"/></g>
<g><path style="opacity:0.986" fill="#5270b5" d="M 165.5,320.5 C 195.663,338.241 225.996,355.407 256.5,372C 245.056,360.259 235.723,347.093 228.5,332.5C 228.5,331.833 228.5,331.167 228.5,330.5C 228.528,328.418 227.861,326.584 226.5,325C 251.329,337.754 275.662,351.587 299.5,366.5C 301.048,379.522 295.382,388.022 282.5,392C 270.838,392.5 259.171,392.667 247.5,392.5C 219.665,375.412 191.331,359.079 162.5,343.5C 163.428,335.814 164.428,328.148 165.5,320.5 Z"/></g>
<g><path style="opacity:0.969" fill="#7364ac" d="M 24.5,331.5 C 32.0045,336.087 39.6712,340.42 47.5,344.5C 48.1667,345.167 48.8333,345.833 49.5,346.5C 59.2565,365.331 71.9232,381.998 87.5,396.5C 113.403,422.962 144.403,440.962 180.5,450.5C 186.256,452.659 192.256,454.326 198.5,455.5C 211.38,457.923 224.38,458.923 237.5,458.5C 240.167,458.5 242.833,458.5 245.5,458.5C 254.167,463.833 262.833,469.167 271.5,474.5C 170.98,484.152 93.4798,446.819 39,362.5C 33.0724,352.647 28.2391,342.313 24.5,331.5 Z"/></g>
<g><path style="opacity:0.962" fill="#4f71b6" d="M 162.5,343.5 C 191.331,359.079 219.665,375.412 247.5,392.5C 224.164,392.667 200.831,392.5 177.5,392C 167.461,389.294 161.628,382.794 160,372.5C 160.426,362.825 161.26,353.158 162.5,343.5 Z"/></g>
<g><path style="opacity:1" fill="#3d78bc" d="M 49.5,346.5 C 61.9547,352.895 74.288,359.561 86.5,366.5C 89.4905,369.792 92.4905,373.126 95.5,376.5C 97.5,380.5 100.5,383.5 104.5,385.5C 130.3,409.905 160.633,426.239 195.5,434.5C 196.681,436.067 198.347,436.901 200.5,437C 204.79,437.923 209.123,438.423 213.5,438.5C 217.234,438.323 220.901,438.656 224.5,439.5C 236.061,444.949 247.395,450.949 258.5,457.5C 254.158,457.739 249.824,458.073 245.5,458.5C 242.833,458.5 240.167,458.5 237.5,458.5C 225.401,457.944 213.235,456.611 201,454.5C 199.93,454.528 199.097,454.861 198.5,455.5C 192.256,454.326 186.256,452.659 180.5,450.5C 180.586,449.504 180.252,448.671 179.5,448C 151.003,431.919 122.67,415.586 94.5,399C 92.3496,397.589 90.0163,396.755 87.5,396.5C 71.9232,381.998 59.2565,365.331 49.5,346.5 Z"/></g>
<g><path style="opacity:0.966" fill="#596db3" d="M 402.5,361.5 C 403.209,362.404 404.209,362.737 405.5,362.5C 406.994,367.555 406.827,372.555 405,377.5C 400.372,383.962 395.205,389.962 389.5,395.5C 388.167,397.5 386.5,399.167 384.5,400.5C 384.063,398.926 383.063,397.759 381.5,397C 378.339,395.587 375.339,393.92 372.5,392C 370.803,391.616 369.137,391.782 367.5,392.5C 375.967,383.864 384.3,375.031 392.5,366C 395.619,364.016 398.952,362.516 402.5,361.5 Z"/></g>
<g><path style="opacity:0.951" fill="#616ab1" d="M 402.5,361.5 C 414.893,361.894 421.893,368.227 423.5,380.5C 423.239,384.45 422.072,388.117 420,391.5C 415.997,396.669 411.497,401.336 406.5,405.5C 400.833,402.167 395.167,398.833 389.5,395.5C 395.205,389.962 400.372,383.962 405,377.5C 406.827,372.555 406.994,367.555 405.5,362.5C 404.209,362.737 403.209,362.404 402.5,361.5 Z"/></g>
<g><path style="opacity:1" fill="#5f6cb2" d="M 95.5,376.5 C 98.8333,379.167 101.833,382.167 104.5,385.5C 100.5,383.5 97.5,380.5 95.5,376.5 Z"/></g>
<g><path style="opacity:0.994" fill="#556fb5" d="M 384.5,400.5 C 372.267,411.74 358.934,421.406 344.5,429.5C 339.389,426.895 334.389,424.061 329.5,421C 327.455,420.51 325.455,420.677 323.5,421.5C 338.782,412.853 353.449,403.186 367.5,392.5C 369.137,391.782 370.803,391.616 372.5,392C 375.339,393.92 378.339,395.587 381.5,397C 383.063,397.759 384.063,398.926 384.5,400.5 Z"/></g>
<g><path style="opacity:0.973" fill="#6768af" d="M 389.5,395.5 C 395.167,398.833 400.833,402.167 406.5,405.5C 389.334,424.34 369.334,439.34 346.5,450.5C 340.666,446.079 334.332,442.412 327.5,439.5C 333.331,436.419 338.998,433.085 344.5,429.5C 358.934,421.406 372.267,411.74 384.5,400.5C 386.5,399.167 388.167,397.5 389.5,395.5 Z"/></g>
<g><path style="opacity:1" fill="#3a7cbf" d="M 87.5,396.5 C 90.0163,396.755 92.3496,397.589 94.5,399C 122.67,415.586 151.003,431.919 179.5,448C 180.252,448.671 180.586,449.504 180.5,450.5C 144.403,440.962 113.403,422.962 87.5,396.5 Z"/></g>
<g><path style="opacity:0.993" fill="#4e71b7" d="M 344.5,429.5 C 338.998,433.085 333.331,436.419 327.5,439.5C 323.562,441.035 319.562,442.368 315.5,443.5C 308.434,439.301 301.101,435.634 293.5,432.5C 303.426,428.856 313.426,425.189 323.5,421.5C 325.455,420.677 327.455,420.51 329.5,421C 334.389,424.061 339.389,426.895 344.5,429.5 Z"/></g>
<g><path style="opacity:0.998" fill="#4873b9" d="M 293.5,432.5 C 301.101,435.634 308.434,439.301 315.5,443.5C 305.319,448.051 294.652,451.385 283.5,453.5C 274.708,448.022 265.708,443.022 256.5,438.5C 269.029,437.69 281.362,435.69 293.5,432.5 Z"/></g>
<g><path style="opacity:0.725" fill="#596db4" d="M 195.5,434.5 C 201.614,435.846 207.614,437.179 213.5,438.5C 209.123,438.423 204.79,437.923 200.5,437C 198.347,436.901 196.681,436.067 195.5,434.5 Z"/></g>
<g><path style="opacity:0.996" fill="#4375ba" d="M 256.5,438.5 C 265.708,443.022 274.708,448.022 283.5,453.5C 275.185,454.941 266.852,456.275 258.5,457.5C 247.395,450.949 236.061,444.949 224.5,439.5C 235.218,439.787 245.885,439.454 256.5,438.5 Z"/></g>
<g><path style="opacity:0.973" fill="#6d66ad" d="M 327.5,439.5 C 334.332,442.412 340.666,446.079 346.5,450.5C 323.139,463.286 298.139,471.286 271.5,474.5C 262.833,469.167 254.167,463.833 245.5,458.5C 249.824,458.073 254.158,457.739 258.5,457.5C 266.852,456.275 275.185,454.941 283.5,453.5C 294.652,451.385 305.319,448.051 315.5,443.5C 319.562,442.368 323.562,441.035 327.5,439.5 Z"/></g>
<g><path style="opacity:1" fill="#5085c4" d="M 198.5,455.5 C 199.097,454.861 199.93,454.528 201,454.5C 213.235,456.611 225.401,457.944 237.5,458.5C 224.38,458.923 211.38,457.923 198.5,455.5 Z"/></g>
</svg>
